<svg xmlns="http://www.w3.org/2000/svg" viewBox="0 0 620 190" role="img" aria-labelledby="title desc">
<title id="title">WIAN Auto Parts</title><desc id="desc">Red WIAN wordmark with black Auto Parts text, turbo graphic and Right Part. First Time. tagline.</desc>
<defs>
  <linearGradient id="metal" x1="0" y1="0" x2="1" y2="1"><stop offset="0" stop-color="#111"/><stop offset=".45" stop-color="#595d60"/><stop offset=".7" stop-color="#0c0d0e"/><stop offset="1" stop-color="#2f3336"/></linearGradient>
  <filter id="shadow" x="-20%" y="-20%" width="140%" height="140%"><feDropShadow dx="0" dy="3" stdDeviation="3" flood-opacity=".22"/></filter>
</defs>
<rect width="620" height="190" fill="#f5f6f7"/>
<g transform="translate(24 38) skewX(-8)">
  <text x="0" y="62" font-family="Arial Black,Arial,sans-serif" font-size="78" font-weight="900" letter-spacing="-6" fill="#d80b10">WIAN</text>
</g>
<text x="35" y="128" font-family="Arial Black,Arial,sans-serif" font-size="27" font-weight="900" letter-spacing="8" fill="#111">AUTO PARTS</text>
<text x="105" y="158" font-family="Arial,Helvetica,sans-serif" font-size="14" font-weight="800" font-style="italic" letter-spacing="1" fill="#d80b10">RIGHT PART. FIRST TIME.</text>
<g transform="translate(424 24)" filter="url(#shadow)">
  <path d="M52 46 C82 9 150 8 178 46 C196 72 190 111 162 132 C142 147 112 151 87 141" fill="none" stroke="#141414" stroke-width="12" stroke-linecap="round"/>
  <path d="M151 44 C181 28 205 29 220 42 C232 53 235 69 230 84" fill="none" stroke="#141414" stroke-width="12" stroke-linecap="round"/>
  <circle cx="108" cy="93" r="55" fill="#0c0d0e" stroke="#1a1a1a" stroke-width="8"/>
  <circle cx="108" cy="93" r="40" fill="url(#metal)" stroke="#d9dcde" stroke-width="4"/>
  <circle cx="108" cy="93" r="9" fill="#111" stroke="#d80b10" stroke-width="4"/>
  <g fill="#e8e9ea" opacity=".88">
    <path d="M109 54 C128 59 141 69 149 83 L118 88 Z"/><path d="M146 87 C148 107 141 122 129 133 L115 102 Z"/><path d="M124 132 C105 138 90 133 77 123 L104 102 Z"/><path d="M73 118 C61 102 60 86 66 71 L98 89 Z"/><path d="M70 67 C83 53 97 49 113 53 L105 84 Z"/>
  </g>
  <path d="M50 52 C33 57 22 68 17 82" fill="none" stroke="#141414" stroke-width="10" stroke-linecap="round"/>
  <path d="M175 46 L213 45" stroke="#141414" stroke-width="10" stroke-linecap="round"/>
</g>
</svg>